<svg xmlns="http://www.w3.org/2000/svg" viewBox="0 0 165.29 132.03">
  <defs>
    <style>
      .cls-1,
      .cls-11,
      .cls-2 {
        fill: none;
        stroke: #ed1c24;
      }
      .cls-1,
      .cls-2 {
        stroke-miterlimit: 10;
      }
      .cls-2 {
        stroke-width: 0.5px;
      }
      .cls-3 {
        font-size: 10.59px;
        font-family: Gotham-Bold, Gotham;
        font-weight: 700;
        letter-spacing: 0.28em;
      }
      .cls-10,
      .cls-3,
      .cls-6 {
        fill: #ed1c24;
      }
      .cls-4 {
        letter-spacing: 0.26em;
      }
      .cls-5 {
        letter-spacing: 0.25em;
      }
      .cls-7,
      .cls-8 {
        fill: #fff;
      }
      .cls-10,
      .cls-12,
      .cls-13,
      .cls-8 {
        fill-rule: evenodd;
      }
      .cls-13,
      .cls-9 {
        fill: #00652e;
      }
      .cls-11 {
        stroke-miterlimit: 22.93;
        stroke-width: 0.85px;
      }
      .cls-12 {
        fill: #a6ce39;
      }

      .cls-1,
      .cls-2 {
        opacity: 0;
        stroke-miterlimit: 10;
        stroke-dasharray: 150;
        stroke-dashoffset: 150;
        animation: dash;
        animation-duration: 3.5s;
        animation-timing-function: ease-out;
        animation-fill-mode: forwards;
      }

      #Anniversary,
      #_60th,
      #SabenaOriginal {
        animation: fade;
        opacity: 0;
        animation-duration: 2s;
        animation-timing-function: ease-in-out;
        animation-fill-mode: forwards;
      }

      #_60th,
      #Anniversary,
      .cls-1,
      .cls-2 {
        animation-delay: 2s;
      }

      @keyframes dash {
        to {
          stroke-dashoffset: 0;
          opacity: 1;
        }
      }

      @keyframes fade {
        to {
          opacity: 1;
        }
      }
    </style>
  </defs>
  <title>Artboard 7 copy 12</title>
  <g id="BottomDividerBottom"><line class="cls-1" x1="47.89" y1="124.83" x2="157.48" y2="124.83"/></g>
  <g id="BottomDividerTop"><line class="cls-2" x1="47.89" y1="122.59" x2="157.48" y2="122.59"/></g>
  <g id="Anniversary">
    <text class="cls-3" transform="translate(46.94 112.15)">ANNIVER<tspan class="cls-4" x="72.1" y="0">S</tspan>
      <tspan x="81.68" y="0">A</tspan>
      <tspan class="cls-5" x="93.01" y="0">R</tspan>
      <tspan x="103.37" y="0">Y</tspan>
    </text>
  </g>
  <g id="TopDividerBottom"><line class="cls-2" x1="47.89" y1="95.09" x2="157.48" y2="95.09"/></g>
  <g id="TopDividerTop"><line class="cls-1" x1="47.89" y1="92.73" x2="157.48" y2="92.73"/></g>
  <g id="_60th" data-name="60th"><path
    class="cls-6"
    d="M24.39,112.75a10.61,10.61,0,0,0-1.49-3.56l-.34-.57-.21-.34a11.7,11.7,0,0,0-2.55-3.14,5.09,5.09,0,0,0-5.61-1.08A34.6,34.6,0,0,1,14.77,97a.56.56,0,0,1,.26-.42c.26-.1.49.19.62.43a6.05,6.05,0,0,0,2.07,2.28,3.44,3.44,0,0,0,3,.35c1.65-.65,2.3-2.81,1.78-4.51a.92.92,0,0,0-.25-.45c-.38-.33-.93,0-1.38.26a2.62,2.62,0,0,1-3.34-1c-.37-.65-.49-1.51-1.12-1.92a1.63,1.63,0,0,0-1.57,0,4.31,4.31,0,0,0-1.25,1c-3.43,3.75-4.81,7-5.67,12.18-1.43,8.55,3.14,19.6,8.12,20.08,3.57.18,5.74-3.53,7-6.25.25-.53.49-1.08.7-1.64.1-.27.19-.53.27-.8l.07-.23A8.1,8.1,0,0,0,24.39,112.75Zm-6.32,1.76a9.34,9.34,0,0,1-1,3.14s-2.46-4.83-2.67-8.23A12.11,12.11,0,0,1,18.06,114.51Z"/><path
    class="cls-7"
    d="M19.12,115.33l-.28-.59c-2.19-4.44-4.7-5.82-5.8-6.23a.37.37,0,0,0-.32,0,.38.38,0,0,0-.2.37c.63,7.71,2.83,11.41,3.7,12.6a.42.42,0,0,0,.68,0,18.27,18.27,0,0,0,2.29-5.27A1.33,1.33,0,0,0,19.12,115.33Zm-1.05-.82a9.34,9.34,0,0,1-1,3.14s-2.46-4.83-2.67-8.23A12.11,12.11,0,0,1,18.06,114.51Z"/><path
    class="cls-7"
    d="M21.68,112.88a20.26,20.26,0,0,0-4.6-7.49,1.23,1.23,0,0,0-.84-.31,11.32,11.32,0,0,0-3.78,1c-.23-2.86.74-9,2.25-10.62.38-.41.6-.54.93.08A5,5,0,0,0,18.49,98c1.71.59,3.15-.34,3.11-2,0-.55,0-1-.79-.57a2.7,2.7,0,0,1-2.33.13,4.41,4.41,0,0,1-2.42-2.3c-.36-.79-.84-.94-1.47-.48C3.7,103.36,8.79,120.5,14.83,124a1.81,1.81,0,0,0,1.87-.23c1.51-1,3.45-2.82,5-8A4.74,4.74,0,0,0,21.68,112.88Zm-3.62,1.63a9.34,9.34,0,0,1-1,3.14s-2.46-4.83-2.67-8.23A12.11,12.11,0,0,1,18.06,114.51Z"/><path
    class="cls-6"
    d="M18.76,114.34c-2.41-5.33-5.4-6.27-6-6.41a.08.08,0,0,0-.09.08c0,.17,0,.35,0,.52.31,7.11,3.11,11,3.61,11.62a.1.1,0,0,0,.17,0A16.48,16.48,0,0,0,18.81,115a.91.91,0,0,0,0-.22A.93.93,0,0,0,18.76,114.34ZM17,117.65s-2.46-4.83-2.67-8.23a12.11,12.11,0,0,1,3.69,5.09A9.34,9.34,0,0,1,17,117.65Z"/><path
    class="cls-6"
    d="M36.3,105.22c0-.19,0-.38-.06-.56l0-.33c0-.16,0-.31-.06-.47-.07-.49-.14-1-.21-1.4a25.08,25.08,0,0,0-.91-4,35.8,35.8,0,0,0-5.15-5.74.36.36,0,0,0-.43,0,35.55,35.55,0,0,0-5.15,5.74,37.5,37.5,0,0,0-1.4,10.74c0,.08,0,.16,0,.23A29.38,29.38,0,0,0,24,116.61a12.42,12.42,0,0,0,5.27,7.05.71.71,0,0,0,.75,0l.26-.17.25-.17c5.13-3.59,5.6-9.6,5.86-13.9,0-.12,0-.25,0-.38s0-.33,0-.49,0-.22,0-.33A28.63,28.63,0,0,0,36.3,105.22Zm-4,3.69c0,.18,0,.36,0,.54s0,.37,0,.56,0,.54-.06.81,0,.57-.08.87-.06.59-.1.89v.11c-.06.44-.12.88-.19,1.33,0,.1,0,.21-.05.32s-.06.39-.1.59-.08.46-.13.7-.08.41-.12.62l0,.18c-.06.27-.11.54-.18.82a.6.6,0,0,1,0,.11q-.09.41-.2.83c-.06.24-.12.49-.19.74s-.1.38-.15.57l-.11.39c-.06.21-.12.42-.18.64-.19.63-.39,1.27-.62,1.92a.08.08,0,0,1-.07.06.07.07,0,0,1-.07-.06c-.61-1.89-4.73-15.62-.06-27.9a.16.16,0,0,1,.3,0A27.11,27.11,0,0,1,32,102.13c.08.52.14,1.07.2,1.64,0,.18,0,.36,0,.55s0,.24,0,.37,0,.38,0,.58,0,.19,0,.29,0,.09,0,.14,0,.11,0,.17,0,.37,0,.56c0,.51,0,1,0,1.57,0,.11,0,.24,0,.35s0,.15,0,.23,0,.18,0,.27A.25.25,0,0,1,32.33,108.91Z"/><path
    class="cls-7"
    d="M36.3,105.22c0-.19,0-.38-.06-.56l0-.33c0-.16,0-.31-.06-.47-.07-.49-.14-1-.21-1.4a25.08,25.08,0,0,0-.91-4,35.8,35.8,0,0,0-5.15-5.74.36.36,0,0,0-.43,0,35.55,35.55,0,0,0-5.15,5.74,37.5,37.5,0,0,0-1.4,10.74c0,.08,0,.16,0,.23A29.38,29.38,0,0,0,24,116.61a12.42,12.42,0,0,0,5.27,7.05.71.71,0,0,0,.75,0l.26-.17.25-.17c5.13-3.59,5.6-9.6,5.86-13.9,0-.12,0-.25,0-.38s0-.33,0-.49,0-.22,0-.33A28.63,28.63,0,0,0,36.3,105.22Zm-4,3.69c0,.18,0,.36,0,.54s0,.37,0,.56,0,.54-.06.81,0,.57-.08.87-.06.59-.1.89v.11c-.06.44-.12.88-.19,1.33,0,.1,0,.21-.05.32s-.06.39-.1.59-.08.46-.13.7-.08.41-.12.62l0,.18c-.06.27-.11.54-.18.82a.6.6,0,0,1,0,.11q-.09.41-.2.83c-.06.24-.12.49-.19.74s-.1.38-.15.57l-.11.39c-.06.21-.12.42-.18.64-.19.63-.39,1.27-.62,1.92a.08.08,0,0,1-.07.06.07.07,0,0,1-.07-.06c-.61-1.89-4.73-15.62-.06-27.9a.16.16,0,0,1,.3,0A27.11,27.11,0,0,1,32,102.13c.08.52.14,1.07.2,1.64,0,.18,0,.36,0,.55s0,.24,0,.37,0,.38,0,.58,0,.19,0,.29,0,.09,0,.14,0,.11,0,.17,0,.37,0,.56c0,.51,0,1,0,1.57,0,.11,0,.24,0,.35s0,.15,0,.23,0,.18,0,.27A.25.25,0,0,1,32.33,108.91Z"/><path
    class="cls-6"
    d="M32.33,106.42c0-.19,0-.38,0-.56s0-.11,0-.17,0-.09,0-.14,0-.19,0-.29,0-.38,0-.58,0-.24,0-.37,0-.37,0-.55c-.06-.57-.12-1.12-.2-1.64a27.11,27.11,0,0,0-2.14-7.61.16.16,0,0,0-.3,0c-4.67,12.28-.55,26,.06,27.9a.07.07,0,0,0,.07.06.08.08,0,0,0,.07-.06c.22-.65.43-1.29.62-1.92.07-.21.13-.43.18-.64l.11-.39c.06-.19.1-.38.15-.57s.13-.49.19-.74.14-.56.2-.83a.6.6,0,0,0,0-.11c.07-.28.12-.55.18-.82l0-.18c0-.21.08-.42.12-.62s.09-.47.13-.7.07-.39.1-.59,0-.21.05-.32c.07-.45.13-.89.19-1.33v-.11c0-.3.07-.59.1-.89s.06-.58.08-.87,0-.55.06-.81,0-.38,0-.56,0-.36,0-.54a.25.25,0,0,0,0-.06c0-.09,0-.18,0-.27s0-.15,0-.23,0-.24,0-.35C32.36,107.45,32.35,106.93,32.33,106.42Zm-2,11.15s-2.54-9.68.07-19.36a26.72,26.72,0,0,1,.86,4.58l-.27.27.14,5a3.55,3.55,0,0,0,.38.3A44.4,44.4,0,0,1,30.32,117.57Z"/><path
    class="cls-6"
    d="M39,107.64c0-.53,0-1.06-.08-1.6,0-.19,0-.39,0-.58,0-.54-.11-1.08-.19-1.61,0-.11,0-.22,0-.33s0-.25-.06-.37a30.72,30.72,0,0,0-1.33-5.69c-.37-.76-3.29-3-4.74-3.89A18.22,18.22,0,0,0,29.6,92c-1.48.59-4.92,4.76-5.48,5.55-.45.63-1.81,6-1.76,10.75,0,.42,0,.84,0,1.24a29.47,29.47,0,0,0,1.35,7.89,13.85,13.85,0,0,0,6.45,7.76,1,1,0,0,0,.93,0c6.87-3.89,7.47-10.77,7.81-15.65q0-.54,0-1.09c0-.15,0-.31,0-.46S39,107.75,39,107.64Zm-2.56,1.78c-.26,4.3-.73,10.31-5.86,13.9l-.25.17-.26.17a.71.71,0,0,1-.75,0A12.42,12.42,0,0,1,24,116.61a29.38,29.38,0,0,1-1.11-7.19c0-.07,0-.15,0-.23a37.5,37.5,0,0,1,1.4-10.74,35.55,35.55,0,0,1,5.15-5.74.36.36,0,0,1,.43,0A35.8,35.8,0,0,1,35,98.45a25.08,25.08,0,0,1,.91,4c.07.45.14.91.21,1.4,0,.16,0,.31.06.47l0,.33c0,.19,0,.38.06.56a28.63,28.63,0,0,1,.15,3c0,.11,0,.22,0,.33s0,.33,0,.49S36.42,109.3,36.41,109.42Z"/><path class="cls-7" d="M31.51,107.54v.39c0,.16,0,.31,0,.47a3.55,3.55,0,0,1-.38-.3l-.14-5,.27-.27c0,.31.07.65.1,1,0,.14,0,.29,0,.44C31.46,105.22,31.51,106.33,31.51,107.54Z"/><path
    class="cls-6"
    d="M41.29,108.25a6.48,6.48,0,0,0-2.31.18c-1,.19-1.72.43-2.55.61a9.57,9.57,0,0,1-2.09.21,5.09,5.09,0,0,1-2-.41,4.73,4.73,0,0,1-.84-.45,3.55,3.55,0,0,1-.38-.3l-.14-5,.27-.27.12-.12.22.75a5,5,0,0,0,.58.35,3.81,3.81,0,0,0,1.78.48,7.81,7.81,0,0,0,2.19-.4,22.17,22.17,0,0,1,2.41-.7l.15,0a3.9,3.9,0,0,1,2.62.49,5.89,5.89,0,0,0-1.7,2.12A6.76,6.76,0,0,1,41.29,108.25Z"/><path
    class="cls-7"
    d="M34.55,108.78a5.75,5.75,0,0,1-3-.85v-.39l.09.06c2.11,1.3,4.05.83,5.93.37a14.14,14.14,0,0,1,2.56-.47,7.61,7.61,0,0,0-1.34-1.59l-.11-.09.07-.12a12.9,12.9,0,0,1,1.3-1.86,3.25,3.25,0,0,0-2.05.23c-3.67,1.43-5.31,1-6.48.2l-.1-.07,0-.43.17.13c1.11.77,2.64,1.29,6.32-.14a3.21,3.21,0,0,1,2.55-.14l.23.11-.19.16a9.55,9.55,0,0,0-1.36,1.84,9.05,9.05,0,0,1,1.46,1.82l.15.25h-.29a12.26,12.26,0,0,0-2.78.47A12.79,12.79,0,0,1,34.55,108.78Z"/><path class="cls-7" d="M32.47,105.56q0,.19,0,.37l.55.15v1.47l.4.07v-1.47l.56.05v-.37A5.74,5.74,0,0,1,32.47,105.56Z"/><path class="cls-7" d="M35.61,105.67v.73a5.69,5.69,0,0,1-.74.13v-.73l-.41,0v1.84l.41,0v-.74a5.74,5.74,0,0,0,.74-.13v.74l.4-.11v-1.84Z"/></g>
  <g id="SabenaOriginal"><path class="cls-8" d="M128.7,31.83A14.86,14.86,0,1,1,143.56,17,14.87,14.87,0,0,1,128.7,31.83Z"/><path class="cls-9" d="M128.7,2.37A14.61,14.61,0,1,1,114.1,17,14.62,14.62,0,0,1,128.7,2.37m0-.5A15.11,15.11,0,1,0,143.81,17,15.11,15.11,0,0,0,128.7,1.87Z"/><path
    class="cls-10"
    d="M153,72.51c0-5-.05-29.25-.05-29.25l-10-5.91-12.63,5a1.49,1.49,0,0,1-1.85-.33l-7.22-4.58-7.67,3.46L109,37.38l-6.33,3.93-8.34-4.25s-5.23,1.75-11.13,13.26c-1.35-1.62-5.63-8.05-6.79-9.94-1.37-.85-3.53-1.32-4.76-2.63,0-2.9.06-10.13,0-13.61-.1-1.85.53-5.44-6.71-11.86-1.56-.68-5.73-2.08-5.73-2.08l-5.73,5S58.68,19,58,25.49c-.22,7.6-.45,17.8-.45,17.8l-8.74-6.22L35.38,42.69l1.73,4.47L40.77,50a27.94,27.94,0,0,0,4.83-1.8c.67-.11,1.71.12.71,1.54-.86.28-8.55,1.33-12.19,8-.24.55-.66,1.26-.87-.31A148.69,148.69,0,0,0,25.49,39.7c-2.76-5.47-7.12-13.17-6.41-19.35.15-.56.59-2.05,1.08-.73.78,1,6.5,7.68,11.75,2.55,1.11-1,4.11-5.17-.12-10-.68.2-5.93,6.58-10.57-4.72C20.49,7.3,7.21,9.67,8,25,8,26.76,7.6,34.34,15,48.8c.71,1.54,8.72,16.74,4.29,20.53-1.42-.47-11-4.78-11.37,6.08,0,1.07,1.86,7.38,4.8,7.47,0,0,.24-8.37,5.7-6,1.59,1.07,2.46,2,4.69,5.72,1.06-.55,4.6-1.93,8.89-7.85.38-.44.77-.87,1.11.33.5,1.22,4.06,7.47,6.77,8.1,2.54.71,5.42,1.95,10.53-1.36.49-.62.38-1.11,1.94.24,1.75,1.1,2.31,1.17,2.81,1.81,1.63-1.24,6.12-5.5,6.65-5.82,3.27,2.06,6.52,4.31,9.12,5.8,1.45-1.65,8.31-10.43,11.6-14.94,1.34,1.72,4.87,9.5,15.34,15.66,2-2.74,4.25-5.64,6-8.41-1.15-1.3-1.15-1.3-3-3.47-1.5-.48-4.07-1.58-5-3.15A148.28,148.28,0,0,1,105.12,57c.27,2.44.2,13.92.55,20.24a81.26,81.26,0,0,0,7.8,6.5c2.5-2.2,1.33-1.38,5.82-5.06,1.78,1.49,3.81,3,5.86,5,1.74-1.42,3-2.53,4.93-3.91.72-.49,1.21-1.11,2.46.69,1.1,1,4.57,5.41,11.79,2.28,1.46-1.17,1.88-2.56,3.78-1.36,1,.71,2.12,1.43,2.86,2.1,2.07-2.05,6.52-6.7,6.52-6.7S154.53,74.16,153,72.51ZM46.31,70.29c-.54.59-1.49,1.7-2.56,0-2.23-3.45-1.23-9.21.92-12.53.81-.84,1.83-1.44,2-.72C46.63,57.07,46.37,66,46.31,70.29Zm91.53,1.79a13.19,13.19,0,0,1,.91-11.69c.77-.88,1.77-1.53,1.93-.83,0,0,.11,8.89.23,13.2C140.32,73.46,139.23,74.89,137.84,72.08Z"/><path class="cls-8" d="M130,46.54s.62,5.54.08,7.23c0,.68-.06,1.16,1,.12a41.21,41.21,0,0,1,7.77-3.69c.46-.33,1.15-1.22,0-1.46a21.87,21.87,0,0,1-4.43,1.58c-.58-.66-4.42-5.73-4.42-3.78"/><path
    class="cls-8"
    d="M148.84,74.3c-.6-1-.68-.41-.62-3.08.1-2.88.08-20.65.13-26.74a47.73,47.73,0,0,0-5.31-4.1c-.95.3-6.13,2.32-10.69,4.53.25.88-.79-1,1,2.26a51.73,51.73,0,0,0,6.43-2.61c1.34.92,2.7,1.74,2.74,3.56a27.43,27.43,0,0,1,0,3.85c-1.24.49-8.86.91-12.56,7.83-.72,1.4-4.78,11.06,1.65,17.87,1,.77,5.13,4.07,10.72.18.5-.36.49-1,2.15.28a8.22,8.22,0,0,0,2.7,1.73A36.85,36.85,0,0,0,151,76C150.43,75.36,149.74,75,148.84,74.3Zm-6.43-1.78c-1,3.4-2.64,2.87-3.87,2.5a6.74,6.74,0,0,1-3.14-3.53c-1.06-2.66-.77-6.72-.1-9.63,1.3-5.73,5.13-6,6.9-6.28a6.93,6.93,0,0,1,.22,1.84C142.5,60.33,142.36,70,142.41,72.52ZM18.82,13.95c2.78,5.27,6.45,6.12,7.18,6.22,6.46.24,5.44-5.3,5-6-7.26,4.09-10.46-2.39-11.87-4.89a11.45,11.45,0,0,0-7.06,5.18c-6.65,10.94.47,26,1.3,27.87,3.33,7.38,7,16.25,7.42,17.26,3,7.63-.09,11-.91,11.66a7.75,7.75,0,0,0-7.78-1.47c-4.41,3-2.61,6.33-2.06,7.17C15.17,71.79,20.3,76,21,76.39a13.94,13.94,0,0,0,7.24-8.44c2.31-9.85-4-20.49-6.73-26a105,105,0,0,1-5.6-12.78C11.94,19,18.37,14.27,18.82,13.95ZM54.25,72.86c-.59-1-.67-.41-.61-3.08.1-2.87.08-20.65.12-26.74a46,46,0,0,0-5.3-4.1c-.95.31-6.13,2.32-10.69,4.53.25.89-.79-1,1,2.26a53.67,53.67,0,0,0,6.43-2.6c1.34.92,2.69,1.73,2.74,3.56a27.48,27.48,0,0,1,0,3.85c-1.24.48-8.86.9-12.56,7.82-.73,1.4-4.78,11.06,1.64,17.87,1,.77,5.13,4.08,10.73.18.5-.36.49-1,2.15.28a8.18,8.18,0,0,0,2.69,1.73,36.31,36.31,0,0,0,3.87-3.89A25.79,25.79,0,0,0,54.25,72.86Zm-6.42-1.78c-1,3.41-2.64,2.87-3.87,2.5A7.19,7.19,0,0,1,40.28,68a22.2,22.2,0,0,1,.51-7.94c1.36-5.43,5.09-5.65,6.83-6A6.35,6.35,0,0,1,47.84,56C47.92,58.89,47.78,68.61,47.83,71.08ZM71,40.08c-1.93.92-1.54,1.74-5.45,2.79.15-6.36.24-14.84.17-22,.05-1.73,1.32-1.38-2.37-5.9-1.61-1.56-3.08-4.26-4.61-2.52L56,15.19c1.06,2.07,3.64,3.75,3.57,10.69-.24,5.76-.38,36.63-.2,45.54a84.79,84.79,0,0,0,9.1,6C70,75.48,76.81,67.07,80.24,60.75,79.75,58.18,76.63,49.1,71,40.08ZM65.55,71.63c-.19-3.69-.09-26.46-.09-26.46,5.27,5.11,7.54,13.12,8.4,15.35A57.73,57.73,0,0,1,65.55,71.63Zm25.71-5.76c1.06-1.41,8.42-11.45,10.66-15.21-.41-1-5-10.88-7.64-12A26.21,26.21,0,0,0,83,60.68,23.9,23.9,0,0,0,95.09,80.13a57.11,57.11,0,0,0,4.22-6.19C98.6,73.33,92.35,70.46,91.26,65.87Zm-2-4.6c-3.67-7.19,2.19-13.8,3.09-14.62.52.79,2.29,2.78,3.08,4.23.94,1.57.24,1.58-.11,2.26A72.53,72.53,0,0,1,89.29,61.27Zm35.54,11.56c-.09-3.42-.12-23.31-.45-31.12-1.34-1.2-.47-.47-3.4-2.4-.75.43-4.81,2.5-7.79,3.78-.79-.72-1.15-.67-4.48-3.58-.75.32-.61-.07-4.53,3.05,1.06,1.38,2.64,2.82,2.84,4,.22,1.79.26,23.64.53,29.16a25.43,25.43,0,0,0,3.93,3A19,19,0,0,0,115,74.89a12.39,12.39,0,0,1-2-2.22c.08-2.68-.39-21.17-.13-23.93,1.31-.56,4.42-2.14,5.48-2.21.13,4.57.14,24.56.24,28.61,1.22,1.5,2.51,2.49,3.28,3.32a28.1,28.1,0,0,0,4-4.05C125.59,73.76,125.25,73.71,124.83,72.83Z"/><path
    class="cls-6"
    d="M150.41,32.64l1.33,0a1.81,1.81,0,0,0,.66-.11.76.76,0,0,0,.35-.3.81.81,0,0,0,.12-.47.75.75,0,0,0-.27-.59,1.11,1.11,0,0,0-.75-.2l-1.47,0Zm-.55,2.83-.12-5,2.07-.05a2.44,2.44,0,0,1,1,.12,1.15,1.15,0,0,1,.52.46,1.44,1.44,0,0,1,.22.76,1.29,1.29,0,0,1-.31.93,1.64,1.64,0,0,1-1,.47,1.56,1.56,0,0,1,.4.27,3.49,3.49,0,0,1,.5.63l.85,1.35-.78,0-.65-1a6.44,6.44,0,0,0-.57-.81,1.05,1.05,0,0,0-.36-.28,1.27,1.27,0,0,0-.49-.06l-.71,0,.05,2.24Z"/><ellipse class="cls-11" cx="151.61" cy="32.93" rx="4.04" ry="4.02" transform="translate(102.87 180.22) rotate(-83.94)"/><path class="cls-12" d="M122.25,7.94a5.09,5.09,0,0,1,7.11-1.07,5.09,5.09,0,0,1,1.52,7A5.09,5.09,0,0,1,123.77,15a5.09,5.09,0,0,1-1.52-7"/><path
    class="cls-13"
    d="M126.37,25.24l-1.29-6.41c-.06-.52-.27-.66-.57-.57a2.41,2.41,0,0,0-1.4,1.09,1.54,1.54,0,0,1-.16-1.09c.08-.21.08-.32-.16-.41a7.56,7.56,0,0,0-1.26.12,3.73,3.73,0,0,0,.79-1.19.32.32,0,0,0-.19-.39l-1.24-.09a11.39,11.39,0,0,1,1.55-1.3.86.86,0,0,0,.24-1c-.4-.62-.87-1.19-.81-1.78A5.47,5.47,0,0,0,124,13.4c.4.3,1.79-1.37,2.67-2l-.15,1.8c-.05.41.67.72,1,.53a12.48,12.48,0,0,0,1.44-.61c-.42.67-.46,1.3-.88,1.64-.2.17-.2.18,0,.38a8.56,8.56,0,0,1,2.35.71,16.19,16.19,0,0,0-2.67.45,7.83,7.83,0,0,0,.49,1.78,1.36,1.36,0,0,1-1.06-.08,1.12,1.12,0,0,1,.16,1,2.32,2.32,0,0,0-1-.38,11.18,11.18,0,0,0,.17,2,15.42,15.42,0,0,0,1.43,4.9c.32.49.59.59.74.26a37,37,0,0,1,3.75-10.09q.62-.88.31-1.09c-.74-.17-1.69.73-2.7,1.1l-.25-.1A9.67,9.67,0,0,0,131,14.07c.11-.19,0-.28-.16-.31a6.42,6.42,0,0,1-2.07-.05,7.29,7.29,0,0,0,1.3-1c.21-.2.11-.32-.16-.41a11.27,11.27,0,0,0-2.1-.34,3.48,3.48,0,0,1,2.38-1.24,5.87,5.87,0,0,0-.11-2.22,3.68,3.68,0,0,1,1.92,1.8c.17.4.65-.91.36-2.17a11,11,0,0,1,2.37,2.51,5.89,5.89,0,0,1,2.46-.72,6.21,6.21,0,0,0-.58,1.6,6.28,6.28,0,0,1,2.32,1.17,17.58,17.58,0,0,0-2,0,6.66,6.66,0,0,1,.8,2.59c-.53-.33-1.36-1-1.6-1a5.38,5.38,0,0,0-.26,2.47,5.12,5.12,0,0,1-1.35-1.64c-.25-.27-.53.29-.83,1.09a29.3,29.3,0,0,0-3.57,8.94c-.21.51-.07.94.83,1.19,1.64,0,2.7.14,2.74.62,0,.2-.14.33-.47.41l-10,.1a1.49,1.49,0,0,1-1.09-.21c-.21-.53.12-.93,1.65-1l2.22-.05a1,1,0,0,0,.31-.93"/></g>
</svg>
